<mxfile host="Electron" agent="Mozilla/5.0 (X11; Linux x86_64) AppleWebKit/537.36 (KHTML, like Gecko) draw.io/26.0.4 Chrome/128.0.6613.186 Electron/32.2.5 Safari/537.36" version="26.0.4">
  <diagram name="Page-1" id="HQ9bPAy2Yt1bWrCcrPCf">
    <mxGraphModel dx="1364" dy="843" grid="1" gridSize="10" guides="1" tooltips="1" connect="1" arrows="1" fold="1" page="1" pageScale="1" pageWidth="2336" pageHeight="1654" math="0" shadow="0">
      <root>
        <mxCell id="0" />
        <mxCell id="1" parent="0" />
        <mxCell id="xiCfs_DRRmpMpJkno4yc-1" value="PIDController &#xa;(bf.control.Controller)" style="swimlane;fontStyle=3;align=center;verticalAlign=top;childLayout=stackLayout;horizontal=1;startSize=40;horizontalStack=0;resizeParent=1;resizeLast=0;collapsible=1;marginBottom=0;rounded=0;shadow=1;strokeWidth=3;fillColor=#dae8fc;strokeColor=#6c8ebf;swimlaneFillColor=#ffffff;gradientColor=#FFFFFF;" parent="1" vertex="1">
          <mxGeometry x="160" y="320" width="300" height="440" as="geometry">
            <mxRectangle x="230" y="140" width="160" height="26" as="alternateBounds" />
          </mxGeometry>
        </mxCell>
        <mxCell id="xiCfs_DRRmpMpJkno4yc-2" value="C_TYPE = &#39;PID-Controller&#39;" style="text;align=left;verticalAlign=top;spacingLeft=4;spacingRight=4;overflow=hidden;rotatable=0;points=[[0,0.5],[1,0.5]];portConstraint=eastwest;fontColor=default;" parent="xiCfs_DRRmpMpJkno4yc-1" vertex="1">
          <mxGeometry y="40" width="300" height="26" as="geometry" />
        </mxCell>
        <mxCell id="xiCfs_DRRmpMpJkno4yc-3" value="C_NAME = &#39;PID Controller&#39;" style="text;align=left;verticalAlign=top;spacingLeft=4;spacingRight=4;overflow=hidden;rotatable=0;points=[[0,0.5],[1,0.5]];portConstraint=eastwest;fontColor=light-dark(#000000, #cdcdff);fillColor=none;" parent="xiCfs_DRRmpMpJkno4yc-1" vertex="1">
          <mxGeometry y="66" width="300" height="26" as="geometry" />
        </mxCell>
        <mxCell id="xiCfs_DRRmpMpJkno4yc-4" value="" style="line;html=1;strokeWidth=1;align=left;verticalAlign=middle;spacingTop=-1;spacingLeft=3;spacingRight=3;rotatable=0;labelPosition=right;points=[];portConstraint=eastwest;" parent="xiCfs_DRRmpMpJkno4yc-1" vertex="1">
          <mxGeometry y="92" width="300" height="8" as="geometry" />
        </mxCell>
        <mxCell id="xiCfs_DRRmpMpJkno4yc-5" value="__init__(p_input_space,&#xa;                 p_output_space, &#xa;                 p_Kp : float,&#xa;                 p_Tn : float  = 0.0 ,&#xa;                 p_Tv : float = 0.0,&#xa;                 p_integral_off : bool = False,&#xa;                 p_derivitave_off : bool = False,&#xa;                 p_anti_windup_on : bool = False,                &#xa;                 p_windup_limit : float,&#xa;                 p_id = None,&#xa;                 p_name : str = None,&#xa;                 p_range_max = Task.C_RANGE_NONE,&#xa;                 p_visualize : boot = False,&#xa;                 p_logging = Log.C_LOG_ALL )&#xa;&#xa;&#xa;" style="text;align=left;verticalAlign=top;spacingLeft=4;spacingRight=4;overflow=hidden;rotatable=0;points=[[0,0.5],[1,0.5]];portConstraint=eastwest;fontColor=default;" parent="xiCfs_DRRmpMpJkno4yc-1" vertex="1">
          <mxGeometry y="100" width="300" height="220" as="geometry" />
        </mxCell>
        <mxCell id="xiCfs_DRRmpMpJkno4yc-6" value="set_parameter(**p_param)&#xa;" style="text;align=left;verticalAlign=top;spacingLeft=4;spacingRight=4;overflow=hidden;rotatable=0;points=[[0,0.5],[1,0.5]];portConstraint=eastwest;fontColor=default;" parent="xiCfs_DRRmpMpJkno4yc-1" vertex="1">
          <mxGeometry y="320" width="300" height="30" as="geometry" />
        </mxCell>
        <mxCell id="xiCfs_DRRmpMpJkno4yc-7" value="get_parameter_values()-&gt; np.ndarray" style="text;align=left;verticalAlign=top;spacingLeft=4;spacingRight=4;overflow=hidden;rotatable=0;points=[[0,0.5],[1,0.5]];portConstraint=eastwest;fontColor=default;" parent="xiCfs_DRRmpMpJkno4yc-1" vertex="1">
          <mxGeometry y="350" width="300" height="30" as="geometry" />
        </mxCell>
        <mxCell id="xiCfs_DRRmpMpJkno4yc-8" value="_compute_output( p_ctrl_error: ControlError,&#xa;                              p_ctrl_var: ControlVariable)" style="text;align=left;verticalAlign=top;spacingLeft=4;spacingRight=4;overflow=hidden;rotatable=0;points=[[0,0.5],[1,0.5]];portConstraint=eastwest;fontColor=default;" parent="xiCfs_DRRmpMpJkno4yc-1" vertex="1">
          <mxGeometry y="380" width="300" height="30" as="geometry" />
        </mxCell>
        <mxCell id="xiCfs_DRRmpMpJkno4yc-11" value="" style="group" parent="1" vertex="1" connectable="0">
          <mxGeometry x="40" y="40" width="490" height="220" as="geometry" />
        </mxCell>
        <mxCell id="xiCfs_DRRmpMpJkno4yc-12" value="&lt;font color=&quot;#000000&quot; size=&quot;1&quot;&gt;&lt;b style=&quot;font-size: 14px&quot;&gt;Legend:&lt;br&gt;&lt;/b&gt;&lt;/font&gt;&lt;br&gt;&lt;br&gt;&lt;br&gt;&lt;font color=&quot;#0000ff&quot; style=&quot;font-size: 6px&quot;&gt;&lt;br&gt;&lt;/font&gt;&lt;span style=&quot;color: rgb(0 , 0 , 0)&quot;&gt;&lt;font style=&quot;font-size: 4px&quot;&gt;&amp;nbsp; &amp;nbsp;&lt;/font&gt;&amp;nbsp;In progress&amp;nbsp; &amp;nbsp; &amp;nbsp; &amp;nbsp; &amp;nbsp; &amp;nbsp; In validation&amp;nbsp; &amp;nbsp; &amp;nbsp; &amp;nbsp; &amp;nbsp; &amp;nbsp;Ready to use&lt;/span&gt;&lt;font color=&quot;#000000&quot;&gt;&amp;nbsp;&lt;br&gt;&lt;/font&gt;&lt;font color=&quot;#0000ff&quot;&gt;&lt;br&gt;&lt;br&gt;&lt;br&gt;&lt;br&gt;&amp;nbsp;attribute / method()&amp;nbsp; &amp;nbsp; &amp;nbsp; &amp;nbsp; New public attribute/method to be implemented&lt;/font&gt;&lt;br&gt;&lt;font color=&quot;#000000&quot;&gt;&amp;nbsp;&lt;/font&gt;&lt;font color=&quot;#000000&quot;&gt;attribute / method()&lt;span&gt; &lt;/span&gt;&amp;nbsp; &amp;nbsp; &amp;nbsp; &amp;nbsp;New/inherited public attribute/method that is implemented here&lt;br&gt;&lt;/font&gt;&lt;font color=&quot;#0000ff&quot;&gt;&amp;nbsp;_attribute /&amp;nbsp;&lt;/font&gt;&lt;font color=&quot;#0000ff&quot;&gt;_method()&amp;nbsp; &amp;nbsp; New protected method/attribute to be implemented&lt;/font&gt;&lt;br&gt;&lt;font color=&quot;#000000&quot;&gt;&amp;nbsp;_attribute / _method()&amp;nbsp; &amp;nbsp; New/inherited protected attribute/method that is implemented here&lt;br&gt;&lt;/font&gt;&lt;font color=&quot;#000000&quot;&gt;&lt;br&gt;&lt;br&gt;&lt;br&gt;&lt;br&gt;&lt;br&gt;&lt;/font&gt;" style="text;html=1;align=left;verticalAlign=top;whiteSpace=wrap;rounded=0;fontColor=#006600;strokeColor=#000000;shadow=1;fillColor=#ffffff;" parent="xiCfs_DRRmpMpJkno4yc-11" vertex="1">
          <mxGeometry width="489.99999999999994" height="220" as="geometry" />
        </mxCell>
        <mxCell id="xiCfs_DRRmpMpJkno4yc-13" value="Depends on" style="endArrow=block;html=1;labelPosition=right;verticalLabelPosition=middle;align=left;verticalAlign=middle;endFill=1;fontSize=12;" parent="xiCfs_DRRmpMpJkno4yc-11" edge="1">
          <mxGeometry x="-1612.9149999999997" y="-2180" width="51.041666666666664" height="50" as="geometry">
            <mxPoint x="20.418023989898757" y="120.00301587301601" as="sourcePoint" />
            <mxPoint x="66.20085227272739" y="120.00301587301601" as="targetPoint" />
            <mxPoint x="98" as="offset" />
            <Array as="points">
              <mxPoint x="40.835000000000036" y="120" />
            </Array>
          </mxGeometry>
        </mxCell>
        <mxCell id="xiCfs_DRRmpMpJkno4yc-14" value="Inherits from" style="endArrow=block;html=1;labelPosition=right;verticalLabelPosition=middle;align=left;verticalAlign=middle;endFill=0;fontSize=12;" parent="xiCfs_DRRmpMpJkno4yc-11" edge="1">
          <mxGeometry x="-1612.9149999999997" y="-2180" width="51.041666666666664" height="50" as="geometry">
            <mxPoint x="20.418023989898757" y="132.3846031746034" as="sourcePoint" />
            <mxPoint x="66.20085227272739" y="132.3846031746034" as="targetPoint" />
            <mxPoint x="98" y="1" as="offset" />
          </mxGeometry>
        </mxCell>
        <mxCell id="xiCfs_DRRmpMpJkno4yc-15" value="" style="swimlane;fontStyle=3;align=center;verticalAlign=top;childLayout=stackLayout;horizontal=1;startSize=26;horizontalStack=0;resizeParent=1;resizeLast=0;collapsible=1;marginBottom=0;rounded=0;shadow=1;strokeWidth=1;fillColor=#f8cecc;strokeColor=#b85450;gradientColor=#ffffff;swimlaneFillColor=#ffffff;" parent="xiCfs_DRRmpMpJkno4yc-11" vertex="1">
          <mxGeometry x="20.418333333333067" y="40" width="40.83333333333333" height="34" as="geometry">
            <mxRectangle x="230" y="140" width="160" height="26" as="alternateBounds" />
          </mxGeometry>
        </mxCell>
        <mxCell id="xiCfs_DRRmpMpJkno4yc-16" value="" style="line;html=1;strokeWidth=1;align=left;verticalAlign=middle;spacingTop=-1;spacingLeft=3;spacingRight=3;rotatable=0;labelPosition=right;points=[];portConstraint=eastwest;" parent="xiCfs_DRRmpMpJkno4yc-15" vertex="1">
          <mxGeometry y="26" width="40.83333333333333" height="8" as="geometry" />
        </mxCell>
        <mxCell id="xiCfs_DRRmpMpJkno4yc-17" value="" style="swimlane;fontStyle=3;align=center;verticalAlign=top;childLayout=stackLayout;horizontal=1;startSize=26;horizontalStack=0;resizeParent=1;resizeLast=0;collapsible=1;marginBottom=0;rounded=0;shadow=1;strokeWidth=1;fillColor=#fff2cc;strokeColor=#d6b656;gradientColor=#ffffff;swimlaneFillColor=#ffffff;" parent="xiCfs_DRRmpMpJkno4yc-11" vertex="1">
          <mxGeometry x="122.50166666666655" y="40" width="40.83333333333333" height="34" as="geometry">
            <mxRectangle x="230" y="140" width="160" height="26" as="alternateBounds" />
          </mxGeometry>
        </mxCell>
        <mxCell id="xiCfs_DRRmpMpJkno4yc-18" value="" style="line;html=1;strokeWidth=1;align=left;verticalAlign=middle;spacingTop=-1;spacingLeft=3;spacingRight=3;rotatable=0;labelPosition=right;points=[];portConstraint=eastwest;" parent="xiCfs_DRRmpMpJkno4yc-17" vertex="1">
          <mxGeometry y="26" width="40.83333333333333" height="8" as="geometry" />
        </mxCell>
        <mxCell id="xiCfs_DRRmpMpJkno4yc-19" value="" style="swimlane;fontStyle=3;align=center;verticalAlign=top;childLayout=stackLayout;horizontal=1;startSize=26;horizontalStack=0;resizeParent=1;resizeLast=0;collapsible=1;marginBottom=0;rounded=0;shadow=1;strokeWidth=1;fillColor=#dae8fc;strokeColor=#6c8ebf;gradientColor=#ffffff;swimlaneFillColor=#ffffff;" parent="xiCfs_DRRmpMpJkno4yc-11" vertex="1">
          <mxGeometry x="224.58500000000004" y="40" width="40.83333333333333" height="34" as="geometry">
            <mxRectangle x="230" y="140" width="160" height="26" as="alternateBounds" />
          </mxGeometry>
        </mxCell>
        <mxCell id="xiCfs_DRRmpMpJkno4yc-20" value="" style="line;html=1;strokeWidth=1;align=left;verticalAlign=middle;spacingTop=-1;spacingLeft=3;spacingRight=3;rotatable=0;labelPosition=right;points=[];portConstraint=eastwest;" parent="xiCfs_DRRmpMpJkno4yc-19" vertex="1">
          <mxGeometry y="26" width="40.83333333333333" height="8" as="geometry" />
        </mxCell>
      </root>
    </mxGraphModel>
  </diagram>
</mxfile>
